<mxfile host="65bd71144e">
    <diagram id="PDY6eIIJEGM6M_8Ka-X5" name="Page-1">
        <mxGraphModel dx="877" dy="795" grid="1" gridSize="10" guides="1" tooltips="1" connect="1" arrows="1" fold="1" page="1" pageScale="1" pageWidth="850" pageHeight="1100" background="none" math="0" shadow="1">
            <root>
                <mxCell id="0"/>
                <mxCell id="1" parent="0"/>
                <mxCell id="4" value="" style="edgeStyle=none;html=1;rounded=1;fillColor=#1ba1e2;strokeColor=#006EAF;strokeWidth=3;" parent="1" source="2" target="3" edge="1">
                    <mxGeometry relative="1" as="geometry"/>
                </mxCell>
                <mxCell id="2" value="&lt;b&gt;&lt;font style=&quot;font-size: 24px;&quot;&gt;Start&lt;br&gt;&lt;/font&gt;page.go()&lt;/b&gt;" style="rounded=1;whiteSpace=wrap;html=1;fillColor=#1ba1e2;fontColor=#ffffff;strokeColor=#006EAF;" parent="1" vertex="1">
                    <mxGeometry x="365" y="20" width="120" height="60" as="geometry"/>
                </mxCell>
                <mxCell id="3" value="&lt;b&gt;IF&lt;br&gt;Route Match&lt;/b&gt;" style="rhombus;whiteSpace=wrap;html=1;rounded=1;fillColor=#d80073;fontColor=#ffffff;strokeColor=#A50040;" parent="1" vertex="1">
                    <mxGeometry x="363" y="120" width="125" height="125" as="geometry"/>
                </mxCell>
                <mxCell id="12" value="" style="edgeStyle=none;html=1;fontSize=12;entryX=0.5;entryY=0;entryDx=0;entryDy=0;rounded=1;fillColor=#1ba1e2;strokeColor=#006EAF;strokeWidth=3;" parent="1" source="6" target="14" edge="1">
                    <mxGeometry relative="1" as="geometry">
                        <mxPoint x="425" y="440" as="targetPoint"/>
                    </mxGeometry>
                </mxCell>
                <mxCell id="6" value="&lt;b&gt;App Based Middeleware&lt;/b&gt;" style="whiteSpace=wrap;html=1;rounded=1;fillColor=#1ba1e2;fontColor=#ffffff;strokeColor=#006EAF;" parent="1" vertex="1">
                    <mxGeometry x="365" y="310" width="120" height="60" as="geometry"/>
                </mxCell>
                <mxCell id="14" value="&lt;b&gt;IF&lt;br&gt;page.route&lt;br&gt;Changed&lt;/b&gt;" style="rhombus;whiteSpace=wrap;html=1;rounded=1;fillColor=#d80073;fontColor=#ffffff;strokeColor=#A50040;" parent="1" vertex="1">
                    <mxGeometry x="363" y="420" width="125" height="125" as="geometry"/>
                </mxCell>
                <mxCell id="16" value="&lt;b&gt;Not Found&lt;br&gt;View&lt;/b&gt;" style="rounded=1;whiteSpace=wrap;html=1;fillColor=#008a00;fontColor=#ffffff;strokeColor=#005700;" parent="1" vertex="1">
                    <mxGeometry x="570.5" y="152.5" width="120" height="60" as="geometry"/>
                </mxCell>
                <mxCell id="21" value="" style="endArrow=classic;html=1;rounded=1;fillColor=#1ba1e2;strokeColor=#006EAF;strokeWidth=3;" parent="1" source="3" edge="1">
                    <mxGeometry relative="1" as="geometry">
                        <mxPoint x="488" y="182.5" as="sourcePoint"/>
                        <mxPoint x="570" y="183" as="targetPoint"/>
                        <Array as="points">
                            <mxPoint x="530" y="183"/>
                        </Array>
                    </mxGeometry>
                </mxCell>
                <mxCell id="22" value="False" style="edgeLabel;resizable=0;html=1;align=center;verticalAlign=middle;rounded=1;strokeColor=#FF0000;fillColor=#FF0000;" parent="21" connectable="0" vertex="1">
                    <mxGeometry relative="1" as="geometry"/>
                </mxCell>
                <mxCell id="23" value="" style="endArrow=classic;html=1;exitX=0.5;exitY=1;exitDx=0;exitDy=0;entryX=0.5;entryY=0;entryDx=0;entryDy=0;rounded=1;fillColor=#1ba1e2;strokeColor=#006EAF;strokeWidth=3;" parent="1" source="3" target="6" edge="1">
                    <mxGeometry relative="1" as="geometry">
                        <mxPoint x="497.70238095238096" y="192.79761904761904" as="sourcePoint"/>
                        <mxPoint x="580" y="193" as="targetPoint"/>
                        <Array as="points"/>
                    </mxGeometry>
                </mxCell>
                <mxCell id="24" value="True" style="edgeLabel;resizable=0;html=1;align=center;verticalAlign=middle;rounded=1;" parent="23" connectable="0" vertex="1">
                    <mxGeometry relative="1" as="geometry">
                        <mxPoint y="-8" as="offset"/>
                    </mxGeometry>
                </mxCell>
                <mxCell id="39" value="" style="edgeStyle=none;rounded=1;html=1;entryX=0.5;entryY=0;entryDx=0;entryDy=0;fillColor=#1ba1e2;strokeColor=#006EAF;strokeWidth=3;" parent="1" source="30" target="37" edge="1">
                    <mxGeometry relative="1" as="geometry">
                        <mxPoint x="425.5" y="830" as="targetPoint"/>
                    </mxGeometry>
                </mxCell>
                <mxCell id="30" value="&lt;b&gt;URL Based Middeleware&lt;/b&gt;" style="whiteSpace=wrap;html=1;rounded=1;fillColor=#1ba1e2;fontColor=#ffffff;strokeColor=#006EAF;" parent="1" vertex="1">
                    <mxGeometry x="365.5" y="610" width="120" height="60" as="geometry"/>
                </mxCell>
                <mxCell id="31" value="" style="endArrow=classic;html=1;exitX=0.5;exitY=1;exitDx=0;exitDy=0;rounded=1;entryX=0.5;entryY=0;entryDx=0;entryDy=0;fillColor=#1ba1e2;strokeColor=#006EAF;strokeWidth=3;" parent="1" source="14" target="30" edge="1">
                    <mxGeometry relative="1" as="geometry">
                        <mxPoint x="424.5" y="640.0000000000002" as="sourcePoint"/>
                        <mxPoint x="450" y="650" as="targetPoint"/>
                        <Array as="points"/>
                    </mxGeometry>
                </mxCell>
                <mxCell id="32" value="False" style="edgeLabel;resizable=0;html=1;align=center;verticalAlign=middle;rounded=1;" parent="31" connectable="0" vertex="1">
                    <mxGeometry relative="1" as="geometry">
                        <mxPoint y="-8" as="offset"/>
                    </mxGeometry>
                </mxCell>
                <mxCell id="34" value="" style="endArrow=classic;html=1;rounded=1;entryX=0;entryY=0.5;entryDx=0;entryDy=0;exitX=0;exitY=0.5;exitDx=0;exitDy=0;fillColor=#1ba1e2;strokeColor=#006EAF;strokeWidth=3;" parent="1" source="37" target="3" edge="1">
                    <mxGeometry width="50" height="50" relative="1" as="geometry">
                        <mxPoint x="220" y="880" as="sourcePoint"/>
                        <mxPoint x="240" y="330" as="targetPoint"/>
                        <Array as="points">
                            <mxPoint x="220" y="783"/>
                            <mxPoint x="220" y="183"/>
                        </Array>
                    </mxGeometry>
                </mxCell>
                <mxCell id="43" value="" style="edgeStyle=none;rounded=1;html=1;fillColor=#1ba1e2;strokeColor=#006EAF;strokeWidth=3;" parent="1" source="37" target="42" edge="1">
                    <mxGeometry relative="1" as="geometry"/>
                </mxCell>
                <mxCell id="37" value="&lt;b&gt;IF&lt;br&gt;page.route&lt;br&gt;Changed&lt;/b&gt;" style="rhombus;whiteSpace=wrap;html=1;rounded=1;fillColor=#d80073;fontColor=#ffffff;strokeColor=#A50040;" parent="1" vertex="1">
                    <mxGeometry x="363" y="720" width="125" height="125" as="geometry"/>
                </mxCell>
                <mxCell id="42" value="&lt;b&gt;View&lt;/b&gt;" style="whiteSpace=wrap;html=1;rounded=1;fillColor=#008a00;fontColor=#ffffff;strokeColor=#005700;" parent="1" vertex="1">
                    <mxGeometry x="365" y="910" width="120" height="60" as="geometry"/>
                </mxCell>
                <mxCell id="46" value="" style="endArrow=classic;html=1;exitX=0;exitY=0.5;exitDx=0;exitDy=0;rounded=1;fillColor=#1ba1e2;strokeColor=#006EAF;strokeWidth=3;" parent="1" source="14" edge="1">
                    <mxGeometry relative="1" as="geometry">
                        <mxPoint x="310" y="550" as="sourcePoint"/>
                        <mxPoint x="220" y="440" as="targetPoint"/>
                        <Array as="points">
                            <mxPoint x="220" y="483"/>
                        </Array>
                    </mxGeometry>
                </mxCell>
                <mxCell id="47" value="True" style="edgeLabel;resizable=0;html=1;align=center;verticalAlign=middle;rounded=1;" parent="46" connectable="0" vertex="1">
                    <mxGeometry relative="1" as="geometry">
                        <mxPoint x="20" as="offset"/>
                    </mxGeometry>
                </mxCell>
                <mxCell id="50" value="True" style="edgeLabel;resizable=0;html=1;align=center;verticalAlign=middle;rounded=1;" parent="1" connectable="0" vertex="1">
                    <mxGeometry x="300.00056848224403" y="496.99517283747457" as="geometry">
                        <mxPoint x="-12" y="286" as="offset"/>
                    </mxGeometry>
                </mxCell>
                <mxCell id="53" value="False" style="edgeLabel;resizable=0;html=1;align=center;verticalAlign=middle;rounded=1;" parent="1" connectable="0" vertex="1">
                    <mxGeometry x="437.00056848224403" y="583.9951728374746" as="geometry">
                        <mxPoint x="-12" y="286" as="offset"/>
                    </mxGeometry>
                </mxCell>
            </root>
        </mxGraphModel>
    </diagram>
</mxfile>